<svg xmlns="http://www.w3.org/2000/svg" xmlns:svg="http://www.w3.org/2000/svg" id="svg5269" width="210mm" height="297mm" version="1.1" viewBox="0 0 210 297"><defs id="defs5263"><marker id="Arrow1Mend" orient="auto" overflow="visible" refX="0" refY="0"><path id="path4580" fill="#000" fill-opacity="1" fill-rule="evenodd" stroke="#000" stroke-opacity="1" stroke-width="1pt" d="M 0.0,0.0 L 5.0,-5.0 L -12.5,0.0 L 5.0,5.0 L 0.0,0.0 z" transform="scale(0.4) rotate(180) translate(10,0)"/></marker><marker id="Arrow2Mstart" orient="auto" overflow="visible" refX="0" refY="0"><path id="path4595" fill="#000" fill-opacity="1" fill-rule="evenodd" stroke="#000" stroke-linejoin="round" stroke-opacity="1" stroke-width=".625" d="M 8.7185878,4.0337352 L -2.2072895,0.016013256 L 8.7185884,-4.0017078 C 6.9730900,-1.6296469 6.9831476,1.6157441 8.7185878,4.0337352 z" transform="scale(0.6) translate(0,0)"/></marker><marker id="Arrow1Lstart" orient="auto" overflow="visible" refX="0" refY="0"><path id="path4571" fill="#000" fill-opacity="1" fill-rule="evenodd" stroke="#000" stroke-opacity="1" stroke-width="1pt" d="M 0.0,0.0 L 5.0,-5.0 L -12.5,0.0 L 5.0,5.0 L 0.0,0.0 z" transform="scale(0.8) translate(12.5,0)"/></marker><marker id="Arrow2Mstart-7" orient="auto" overflow="visible" refX="0" refY="0"><path id="path4595-8" fill="#000" fill-opacity="1" fill-rule="evenodd" stroke="#000" stroke-linejoin="round" stroke-opacity="1" stroke-width=".625" d="M 8.7185878,4.0337352 -2.2072895,0.01601326 8.7185884,-4.0017078 c -1.7454984,2.3720609 -1.7354408,5.6174519 -6e-7,8.035443 z" transform="scale(0.6)"/></marker><marker id="Arrow1Mend-4" orient="auto" overflow="visible" refX="0" refY="0"><path id="path4580-5" fill="#000" fill-opacity="1" fill-rule="evenodd" stroke="#000" stroke-opacity="1" stroke-width="1.333" d="M 0,0 5,-5 -12.5,0 5,5 Z" transform="matrix(-0.4,0,0,-0.4,-4,0)"/></marker><marker id="Arrow2Mstart-4" orient="auto" overflow="visible" refX="0" refY="0"><path id="path4595-2" fill="#000" fill-opacity="1" fill-rule="evenodd" stroke="#000" stroke-linejoin="round" stroke-opacity="1" stroke-width=".625" d="M 8.7185878,4.0337352 -2.2072895,0.01601326 8.7185884,-4.0017078 c -1.7454984,2.3720609 -1.7354408,5.6174519 -6e-7,8.035443 z" transform="scale(0.6)"/></marker><marker id="Arrow1Mend-6" orient="auto" overflow="visible" refX="0" refY="0"><path id="path4580-8" fill="#000" fill-opacity="1" fill-rule="evenodd" stroke="#000" stroke-opacity="1" stroke-width="1.333" d="M 0,0 5,-5 -12.5,0 5,5 Z" transform="matrix(-0.4,0,0,-0.4,-4,0)"/></marker><marker id="Arrow2Mstart-5" orient="auto" overflow="visible" refX="0" refY="0"><path id="path4595-89" fill="#000" fill-opacity="1" fill-rule="evenodd" stroke="#000" stroke-linejoin="round" stroke-opacity="1" stroke-width=".625" d="M 8.7185878,4.0337352 -2.2072895,0.01601326 8.7185884,-4.0017078 c -1.7454984,2.3720609 -1.7354408,5.6174519 -6e-7,8.035443 z" transform="scale(0.6)"/></marker><marker id="Arrow1Mend-66" orient="auto" overflow="visible" refX="0" refY="0"><path id="path4580-0" fill="#000" fill-opacity="1" fill-rule="evenodd" stroke="#000" stroke-opacity="1" stroke-width="1.333" d="M 0,0 5,-5 -12.5,0 5,5 Z" transform="matrix(-0.4,0,0,-0.4,-4,0)"/></marker></defs><metadata id="metadata5266"/><g id="layer1"><g id="g5284" transform="translate(21.114293,22.985179)"><g id="g5278"><rect id="rect5271" width="46.605" height="46.605" x="12.867" y="24.635" fill="#fff" stroke="#000" stroke-dasharray="none" stroke-dashoffset="0" stroke-miterlimit="4" stroke-width=".172"/></g><path id="path5273" fill="none" stroke="#000" stroke-linecap="butt" stroke-linejoin="miter" stroke-opacity="1" stroke-width=".177" d="M 9.4663135,27.977679 36.164479,1.2795138"/><path id="path5275" fill="none" stroke="#000" stroke-linecap="butt" stroke-linejoin="miter" stroke-opacity="1" stroke-width=".163" d="M 63.164897,28.31095 36.0766,1.2226509"/></g><rect id="rect5286" width="2.157" height="19.062" x="79.336" y="59.488" fill="#fff" stroke="#000" stroke-dasharray="none" stroke-dashoffset="0" stroke-miterlimit="4" stroke-width=".179"/><path id="path5290" fill="none" stroke="#000" stroke-linecap="butt" stroke-linejoin="miter" stroke-opacity="1" stroke-width=".265" d="M 80.514943,87.594323 H 34.010047"/><path id="path5292" fill="none" stroke="#000" stroke-dasharray="none" stroke-linecap="butt" stroke-linejoin="miter" stroke-miterlimit="4" stroke-opacity="1" stroke-width=".339" marker-end="url(#Arrow1Mend)" marker-start="url(#Arrow2Mstart)" d="M 89.869377,86.804412 V 79.046943"/><path id="path5292-6" fill="none" stroke="#000" stroke-dasharray="none" stroke-linecap="butt" stroke-linejoin="miter" stroke-miterlimit="4" stroke-opacity="1" stroke-width=".615" marker-end="url(#Arrow1Mend-4)" marker-start="url(#Arrow2Mstart-7)" d="M 85.522993,86.585821 V 61.045983"/><text id="text6548" x="92.544" y="84.886" fill="#000" fill-opacity="1" stroke="none" stroke-width=".103" font-family="sans-serif" font-size="4.116" font-style="normal" font-weight="normal" letter-spacing="0" word-spacing="0" xml:space="preserve" style="line-height:1.25"><tspan id="tspan6546" x="92.544" y="84.886" stroke-width=".103">bottom</tspan></text><text id="text6840" x="88.449" y="63.09" fill="#000" fill-opacity="1" stroke="none" stroke-width=".113" font-family="sans-serif" font-size="4.517" font-style="normal" font-weight="normal" letter-spacing="0" word-spacing="0" xml:space="preserve" style="line-height:1.25"><tspan id="tspan6838" x="88.449" y="63.09" stroke-width=".113">top</tspan></text><path id="path5292-2" fill="none" stroke="#000" stroke-dasharray="none" stroke-linecap="butt" stroke-linejoin="miter" stroke-miterlimit="4" stroke-opacity="1" stroke-width=".398" marker-end="url(#Arrow1Mend-6)" marker-start="url(#Arrow2Mstart-4)" d="M 80.000514,88.98199 H 69.294752"/><path id="path7911" fill="none" stroke="olive" stroke-dasharray="1.058 .265" stroke-dashoffset="0" stroke-linecap="butt" stroke-linejoin="miter" stroke-miterlimit="4" stroke-opacity="1" stroke-width=".265" d="M 68.35418,87.527507 105.90555,43.361218"/><text id="text8035" x="62.874" y="92.555" fill="#000" fill-opacity="1" stroke="none" stroke-width=".056" font-family="sans-serif" font-size="2.248" font-style="normal" font-weight="normal" letter-spacing="0" word-spacing="0" xml:space="preserve" style="line-height:1.25"><tspan id="tspan8033" x="62.874" y="92.555" stroke-width=".056">length on floor</tspan></text><circle id="path3735" cx="109.915" cy="38.951" r="5.746" fill="#fc0" stroke="#000" stroke-width=".265"/><path id="path8054" fill="none" stroke="#000" stroke-dasharray=".265 .529" stroke-dashoffset="0" stroke-linecap="butt" stroke-linejoin="miter" stroke-miterlimit="4" stroke-opacity="1" stroke-width=".265" d="M 80.648579,73.362221 H 49.51168"/><path id="path5292-7" fill="none" stroke="#000" stroke-dasharray="none" stroke-linecap="butt" stroke-linejoin="miter" stroke-miterlimit="4" stroke-opacity="1" stroke-width=".434" marker-end="url(#Arrow1Mend-66)" marker-start="url(#Arrow2Mstart-5)" d="M 49.51168,86.536599 V 73.791576"/><text id="text8035-7" x="50.345" y="79.001" fill="#000" fill-opacity="1" stroke="none" stroke-width=".056" font-family="sans-serif" font-size="2.248" font-style="normal" font-weight="normal" letter-spacing="0" word-spacing="0" xml:space="preserve" style="line-height:1.25"><tspan id="tspan8033-2" x="50.345" y="79.001" stroke-width=".056">calculated</tspan><tspan id="tspan8473" x="50.345" y="81.811" stroke-width=".056">blind position</tspan></text><path id="path3713-1" fill="none" stroke="purple" stroke-width=".12" d="m 74.78683,79.946492 a 19.361328,11.965959 0 0 1 4.140904,7.39577"/><text id="text8035-8" x="69.901" y="87.095" fill="purple" fill-opacity="1" stroke="purple" stroke-width=".056" font-family="sans-serif" font-size="2.248" font-style="normal" font-weight="normal" letter-spacing="0" word-spacing="0" xml:space="preserve" style="line-height:1.25"><tspan id="tspan8033-8" x="69.901" y="87.095" fill="purple" stroke="purple" stroke-width=".056">altitude</tspan></text></g></svg>