<svg xmlns="http://www.w3.org/2000/svg" xmlns:svg="http://www.w3.org/2000/svg" id="svg8" width="808.8" height="551.752" version="1.1" viewBox="0 0 213.995 145.984"><defs id="defs2"><marker id="Arrow1Mend" orient="auto" overflow="visible" refX="0" refY="0"><path id="path4751" fill="#fff" fill-opacity="1" fill-rule="evenodd" stroke="#fff" stroke-opacity="1" stroke-width="1.333" d="M 0,0 5,-5 -12.5,0 5,5 Z" transform="matrix(-0.4,0,0,-0.4,-4,0)"/></marker><marker id="Arrow1Mstart" orient="auto" overflow="visible" refX="0" refY="0"><path id="path4748" fill="#fff" fill-opacity="1" fill-rule="evenodd" stroke="#fff" stroke-opacity="1" stroke-width="1.333" d="M 0,0 5,-5 -12.5,0 5,5 Z" transform="matrix(0.4,0,0,0.4,4,0)"/></marker><marker id="Arrow2Lstart" orient="auto" overflow="visible" refX="0" refY="0"><path id="path4760" fill="#000" fill-opacity="1" fill-rule="evenodd" stroke="#000" stroke-linejoin="round" stroke-opacity="1" stroke-width=".625" d="M 8.7185878,4.0337352 -2.2072895,0.01601326 8.7185884,-4.0017078 c -1.7454984,2.3720609 -1.7354408,5.6174519 -6e-7,8.035443 z" transform="matrix(1.1,0,0,1.1,1.1,0)"/></marker><marker id="Arrow2Lend" orient="auto" overflow="visible" refX="0" refY="0"><path id="path4763" fill="#000" fill-opacity="1" fill-rule="evenodd" stroke="#000" stroke-linejoin="round" stroke-opacity="1" stroke-width=".625" d="M 8.7185878,4.0337352 -2.2072895,0.01601326 8.7185884,-4.0017078 c -1.7454984,2.3720609 -1.7354408,5.6174519 -6e-7,8.035443 z" transform="matrix(-1.1,0,0,-1.1,-1.1,0)"/></marker><marker id="Arrow1Lend" orient="auto" overflow="visible" refX="0" refY="0"><path id="path4745" fill="#000" fill-opacity="1" fill-rule="evenodd" stroke="#000" stroke-opacity="1" stroke-width="1.333" d="M 0,0 5,-5 -12.5,0 5,5 Z" transform="matrix(-0.8,0,0,-0.8,-10,0)"/></marker><marker id="Arrow1Lstart" orient="auto" overflow="visible" refX="0" refY="0"><path id="path4742" fill="#000" fill-opacity="1" fill-rule="evenodd" stroke="#000" stroke-opacity="1" stroke-width="1.333" d="M 0,0 5,-5 -12.5,0 5,5 Z" transform="matrix(0.8,0,0,0.8,10,0)"/></marker><marker id="Arrow1Mstart-9" orient="auto" overflow="visible" refX="0" refY="0"><path id="path4748-5" fill="#fff" fill-opacity="1" fill-rule="evenodd" stroke="#fff" stroke-opacity="1" stroke-width="1.333" d="M 0,0 5,-5 -12.5,0 5,5 Z" transform="matrix(0.4,0,0,0.4,4,0)"/></marker><marker id="Arrow1Mend-7" orient="auto" overflow="visible" refX="0" refY="0"><path id="path4751-7" fill="#fff" fill-opacity="1" fill-rule="evenodd" stroke="#fff" stroke-opacity="1" stroke-width="1.333" d="M 0,0 5,-5 -12.5,0 5,5 Z" transform="matrix(-0.4,0,0,-0.4,-4,0)"/></marker><marker id="Arrow1Mstart-9-5" orient="auto" overflow="visible" refX="0" refY="0"><path id="path4748-5-2" fill="#fff" fill-opacity="1" fill-rule="evenodd" stroke="#fff" stroke-opacity="1" stroke-width="1.333" d="M 0,0 5,-5 -12.5,0 5,5 Z" transform="matrix(0.4,0,0,0.4,4,0)"/></marker><marker id="Arrow1Mend-7-9" orient="auto" overflow="visible" refX="0" refY="0"><path id="path4751-7-0" fill="#fff" fill-opacity="1" fill-rule="evenodd" stroke="#fff" stroke-opacity="1" stroke-width="1.333" d="M 0,0 5,-5 -12.5,0 5,5 Z" transform="matrix(-0.4,0,0,-0.4,-4,0)"/></marker><marker id="Arrow1Mstart-9-2" orient="auto" overflow="visible" refX="0" refY="0"><path id="path4748-5-6" fill="#fff" fill-opacity="1" fill-rule="evenodd" stroke="#fff" stroke-opacity="1" stroke-width="1.333" d="M 0,0 5,-5 -12.5,0 5,5 Z" transform="matrix(0.4,0,0,0.4,4,0)"/></marker><marker id="Arrow1Mend-7-0" orient="auto" overflow="visible" refX="0" refY="0"><path id="path4751-7-1" fill="#fff" fill-opacity="1" fill-rule="evenodd" stroke="#fff" stroke-opacity="1" stroke-width="1.333" d="M 0,0 5,-5 -12.5,0 5,5 Z" transform="matrix(-0.4,0,0,-0.4,-4,0)"/></marker><marker id="Arrow1Mstart-9-6" orient="auto" overflow="visible" refX="0" refY="0"><path id="path4748-5-5" fill="#fff" fill-opacity="1" fill-rule="evenodd" stroke="#fff" stroke-opacity="1" stroke-width="1.333" d="M 0,0 5,-5 -12.5,0 5,5 Z" transform="matrix(0.4,0,0,0.4,4,0)"/></marker><marker id="Arrow1Mend-7-5" orient="auto" overflow="visible" refX="0" refY="0"><path id="path4751-7-6" fill="#fff" fill-opacity="1" fill-rule="evenodd" stroke="#fff" stroke-opacity="1" stroke-width="1.333" d="M 0,0 5,-5 -12.5,0 5,5 Z" transform="matrix(-0.4,0,0,-0.4,-4,0)"/></marker><marker id="Arrow1Mstart-9-4" orient="auto" overflow="visible" refX="0" refY="0"><path id="path4748-5-7" fill="#fff" fill-opacity="1" fill-rule="evenodd" stroke="#fff" stroke-opacity="1" stroke-width="1.333" d="M 0,0 5,-5 -12.5,0 5,5 Z" transform="matrix(0.4,0,0,0.4,4,0)"/></marker><marker id="Arrow1Mend-7-2" orient="auto" overflow="visible" refX="0" refY="0"><path id="path4751-7-03" fill="#fff" fill-opacity="1" fill-rule="evenodd" stroke="#fff" stroke-opacity="1" stroke-width="1.333" d="M 0,0 5,-5 -12.5,0 5,5 Z" transform="matrix(-0.4,0,0,-0.4,-4,0)"/></marker><marker id="Arrow1Mstart-9-4-8" orient="auto" overflow="visible" refX="0" refY="0"><path id="path4748-5-7-2" fill="#fff" fill-opacity="1" fill-rule="evenodd" stroke="#fff" stroke-opacity="1" stroke-width="1.333" d="M 0,0 5,-5 -12.5,0 5,5 Z" transform="matrix(0.4,0,0,0.4,4,0)"/></marker><marker id="Arrow1Mend-7-2-5" orient="auto" overflow="visible" refX="0" refY="0"><path id="path4751-7-03-1" fill="#fff" fill-opacity="1" fill-rule="evenodd" stroke="#fff" stroke-opacity="1" stroke-width="1.333" d="M 0,0 5,-5 -12.5,0 5,5 Z" transform="matrix(-0.4,0,0,-0.4,-4,0)"/></marker><marker id="Arrow1Mstart-9-6-7" orient="auto" overflow="visible" refX="0" refY="0"><path id="path4748-5-5-1" fill="#fff" fill-opacity="1" fill-rule="evenodd" stroke="#fff" stroke-opacity="1" stroke-width="1.333" d="M 0,0 5,-5 -12.5,0 5,5 Z" transform="matrix(0.4,0,0,0.4,4,0)"/></marker><marker id="Arrow1Mend-7-5-5" orient="auto" overflow="visible" refX="0" refY="0"><path id="path4751-7-6-5" fill="#fff" fill-opacity="1" fill-rule="evenodd" stroke="#fff" stroke-opacity="1" stroke-width="1.333" d="M 0,0 5,-5 -12.5,0 5,5 Z" transform="matrix(-0.4,0,0,-0.4,-4,0)"/></marker><marker id="Arrow1Mstart-9-2-3" orient="auto" overflow="visible" refX="0" refY="0"><path id="path4748-5-6-0" fill="#fff" fill-opacity="1" fill-rule="evenodd" stroke="#fff" stroke-opacity="1" stroke-width="1.333" d="M 0,0 5,-5 -12.5,0 5,5 Z" transform="matrix(0.4,0,0,0.4,4,0)"/></marker><marker id="Arrow1Mend-7-0-8" orient="auto" overflow="visible" refX="0" refY="0"><path id="path4751-7-1-1" fill="#fff" fill-opacity="1" fill-rule="evenodd" stroke="#fff" stroke-opacity="1" stroke-width="1.333" d="M 0,0 5,-5 -12.5,0 5,5 Z" transform="matrix(-0.4,0,0,-0.4,-4,0)"/></marker><marker id="Arrow1Mstart-9-5-6" orient="auto" overflow="visible" refX="0" refY="0"><path id="path4748-5-2-1" fill="#fff" fill-opacity="1" fill-rule="evenodd" stroke="#fff" stroke-opacity="1" stroke-width="1.333" d="M 0,0 5,-5 -12.5,0 5,5 Z" transform="matrix(0.4,0,0,0.4,4,0)"/></marker><marker id="Arrow1Mend-7-9-9" orient="auto" overflow="visible" refX="0" refY="0"><path id="path4751-7-0-1" fill="#fff" fill-opacity="1" fill-rule="evenodd" stroke="#fff" stroke-opacity="1" stroke-width="1.333" d="M 0,0 5,-5 -12.5,0 5,5 Z" transform="matrix(-0.4,0,0,-0.4,-4,0)"/></marker><marker id="Arrow1Mstart-9-9" orient="auto" overflow="visible" refX="0" refY="0"><path id="path4748-5-61" fill="#fff" fill-opacity="1" fill-rule="evenodd" stroke="#fff" stroke-opacity="1" stroke-width="1.333" d="M 0,0 5,-5 -12.5,0 5,5 Z" transform="matrix(0.4,0,0,0.4,4,0)"/></marker><marker id="Arrow1Mend-7-8" orient="auto" overflow="visible" refX="0" refY="0"><path id="path4751-7-4" fill="#fff" fill-opacity="1" fill-rule="evenodd" stroke="#fff" stroke-opacity="1" stroke-width="1.333" d="M 0,0 5,-5 -12.5,0 5,5 Z" transform="matrix(-0.4,0,0,-0.4,-4,0)"/></marker><marker id="Arrow1Mstart-8" orient="auto" overflow="visible" refX="0" refY="0"><path id="path4748-4" fill="#fff" fill-opacity="1" fill-rule="evenodd" stroke="#fff" stroke-opacity="1" stroke-width="1.333" d="M 0,0 5,-5 -12.5,0 5,5 Z" transform="matrix(0.4,0,0,0.4,4,0)"/></marker><marker id="Arrow1Mend-9" orient="auto" overflow="visible" refX="0" refY="0"><path id="path4751-4" fill="#fff" fill-opacity="1" fill-rule="evenodd" stroke="#fff" stroke-opacity="1" stroke-width="1.333" d="M 0,0 5,-5 -12.5,0 5,5 Z" transform="matrix(-0.4,0,0,-0.4,-4,0)"/></marker></defs><metadata id="metadata5"/><g id="layer1" transform="translate(-3.8369008,-147.67667)"><path id="path10-5-6-9" fill="#aef" stroke="#000" stroke-width=".265" d="m 182.12608,220.71321 a 71.815475,71.815475 0 0 1 -35.90774,62.19403 71.815475,71.815475 0 0 1 -71.815479,0 71.815475,71.815475 0 0 1 -35.907736,-62.19403 l 71.815475,0 z"/><path id="path10-5-0" fill="#5df" stroke="gray" stroke-width=".265" d="M 181.95114,225.72281 A 71.815475,71.815475 0 0 1 110.3106,292.52869 71.815475,71.815475 0 0 1 38.670064,225.7228 l 71.640536,-5.00959 z"/><path id="path10-5" fill="#59f" stroke="#000" stroke-width=".265" d="M 181.73266,228.21997 A 71.815475,71.815475 0 0 1 110.3106,292.52869 71.815475,71.815475 0 0 1 38.888537,228.21997 l 71.422063,-7.50676 z"/><path id="path10-5-0-8" fill="#2a7fff" stroke="gray" stroke-width=".265" d="m 181.42717,230.70799 a 71.815475,71.815475 0 0 1 -71.11657,61.8207 71.815475,71.815475 0 0 1 -71.116572,-61.8207 l 71.116572,-9.99478 z"/><path id="path10-5-6" fill="#8080ff" stroke="#000" stroke-width=".265" d="m 180.55674,235.64449 a 71.815475,71.815475 0 0 1 -70.24614,56.8842 71.815475,71.815475 0 0 1 -70.246134,-56.8842 L 110.3106,220.71321 Z"/><path id="path10-5-6-2" fill="#2a2aff" stroke="gray" stroke-width=".265" d="M 179.67902,239.30042 A 71.815475,71.815475 0 0 1 110.3106,292.52869 71.815475,71.815475 0 0 1 40.942177,239.30042 L 110.3106,220.71321 Z"/><path id="path10-5-6-4" fill="#000" stroke="#000" stroke-width=".265" d="M 178.61118,242.90541 A 71.815475,71.815475 0 0 1 110.3106,292.52869 71.815475,71.815475 0 0 1 42.010024,242.90541 l 68.300576,-22.1922 z"/><circle id="path10" cx="110.267" cy="220.624" r="71.815" fill="none" stroke="#000" stroke-width=".265"/><text id="text3845" x="90.8" y="218.575" fill="#000" fill-opacity="1" stroke="none" stroke-width=".265" font-family="sans-serif" font-size="10.583" font-style="normal" font-weight="normal" letter-spacing="0" word-spacing="0" xml:space="preserve" style="line-height:1.25"><tspan id="tspan3843" x="90.8" y="218.575" stroke-width=".265">horizon</tspan></text><path id="path3847" fill="#fff" stroke="#fff" stroke-linecap="butt" stroke-linejoin="miter" stroke-opacity="1" stroke-width=".248" marker-end="url(#Arrow1Mend)" marker-start="url(#Arrow1Mstart)" d="m 48.37793,221.15909 0.401868,5.38901"/><text id="text3867" x="-27.453" y="252.636" fill="#fff" fill-opacity="1" stroke="none" stroke-width=".265" font-family="sans-serif" font-size="10.583" font-style="normal" font-weight="normal" letter-spacing="0" transform="rotate(-17.302449)" word-spacing="0" xml:space="preserve" style="line-height:1.25"><tspan id="tspan3865" x="-27.453" y="252.636" fill="#fff" stroke-width=".265">night</tspan></text><text id="text3867-3" x="217.815" y="180.762" fill="#fff" fill-opacity="1" stroke="none" stroke-width=".265" font-family="sans-serif" font-size="10.583" font-style="normal" font-weight="normal" letter-spacing="0" transform="rotate(19.039116)" word-spacing="0" xml:space="preserve" style="line-height:1.25"><tspan id="tspan3865-1" x="217.815" y="180.762" fill="#fff" stroke-width=".265">night</tspan></text><text id="text3889" x="26.029" y="221.742" fill="#000" fill-opacity="1" stroke="none" stroke-width=".265" font-family="sans-serif" font-size="10.583" font-style="normal" font-weight="normal" letter-spacing="0" word-spacing="0" xml:space="preserve" style="line-height:1.25"><tspan id="tspan3887" x="26.029" y="221.742" stroke-width=".265" font-size="3.528">sunset</tspan></text><text id="text3889-3" x="-4.448" y="231.932" fill="#000" fill-opacity="1" stroke="none" stroke-width=".265" font-family="sans-serif" font-size="10.583" font-style="normal" font-weight="normal" letter-spacing="0" transform="rotate(-6.4536772)" word-spacing="0" xml:space="preserve" style="line-height:1.25"><tspan id="tspan3887-7" x="-4.448" y="231.932" stroke-width=".265" font-size="3.528">civil dusk</tspan></text><text id="text3889-7" x="-32.428" y="240.099" fill="#000" fill-opacity="1" stroke="none" stroke-width=".265" font-family="sans-serif" font-size="10.583" font-style="normal" font-weight="normal" letter-spacing="0" transform="rotate(-11.881737)" word-spacing="0" xml:space="preserve" style="line-height:1.25"><tspan id="tspan3887-8" x="-32.428" y="240.099" stroke-width=".265" font-size="3.528">nautical dusl</tspan></text><text id="text3889-7-2" x="-67.039" y="245.47" fill="#000" fill-opacity="1" stroke="none" stroke-width=".265" font-family="sans-serif" font-size="10.583" font-style="normal" font-weight="normal" letter-spacing="0" transform="rotate(-17.762538)" word-spacing="0" xml:space="preserve" style="line-height:1.25"><tspan id="tspan3887-8-8" x="-67.039" y="245.47" stroke-width=".265" font-size="3.528">astronomical dusk</tspan></text><path id="path3847-4" fill="#fff" stroke="#fff" stroke-linecap="butt" stroke-linejoin="miter" stroke-opacity="1" stroke-width=".334" marker-end="url(#Arrow1Mend-7)" marker-start="url(#Arrow1Mstart-9)" d="m 59.502989,221.43187 1.078988,9.24792"/><path id="path3847-4-8" fill="#fff" stroke="#fff" stroke-linecap="butt" stroke-linejoin="miter" stroke-opacity="1" stroke-width=".417" marker-end="url(#Arrow1Mend-7-9)" marker-start="url(#Arrow1Mstart-9-5)" d="m 73.172392,221.24947 1.766467,10.24483"/><text id="text8054" x="49.18" y="224.482" fill="#fff" fill-opacity="1" stroke="none" stroke-width=".265" font-family="sans-serif" font-size="2.822" font-style="normal" font-weight="normal" letter-spacing="0" word-spacing="0" xml:space="preserve" style="line-height:1.25"><tspan id="tspan8052" x="49.18" y="224.482" fill="#fff" stroke-width=".265" font-size="2.822">6°</tspan></text><path id="path3847-4-2" fill="#fff" stroke="#fff" stroke-linecap="butt" stroke-linejoin="miter" stroke-opacity="1" stroke-width=".247" marker-end="url(#Arrow1Mend-7-0)" marker-start="url(#Arrow1Mstart-9-2)" d="m 41.367803,221.17944 0.505478,3.95929"/><path id="path3847-4-83" fill="#fff" stroke="#fff" stroke-linecap="butt" stroke-linejoin="miter" stroke-opacity="1" stroke-width=".301" marker-end="url(#Arrow1Mend-7-5)" marker-start="url(#Arrow1Mstart-9-6)" d="m 54.082577,221.30468 0.49483,6.73262"/><text id="text8054-7" x="42.898" y="224.041" fill="#fff" fill-opacity="1" stroke="none" stroke-width=".265" font-family="sans-serif" font-size="2.822" font-style="normal" font-weight="normal" letter-spacing="0" word-spacing="0" xml:space="preserve" style="line-height:1.25"><tspan id="tspan8052-5" x="42.898" y="224.041" fill="#fff" stroke-width=".265" font-size="2.822">4°</tspan></text><text id="text8054-74" x="55.324" y="223.947" fill="#fff" fill-opacity="1" stroke="none" stroke-width=".265" font-family="sans-serif" font-size="2.822" font-style="normal" font-weight="normal" letter-spacing="0" word-spacing="0" xml:space="preserve" style="line-height:1.25"><tspan id="tspan8052-8" x="55.324" y="223.947" fill="#fff" stroke-width=".265" font-size="2.822">8°</tspan></text><text id="text8054-74-2" x="60.332" y="223.285" fill="#fff" fill-opacity="1" stroke="none" stroke-width=".265" font-family="sans-serif" font-size="2.822" font-style="normal" font-weight="normal" letter-spacing="0" word-spacing="0" xml:space="preserve" style="line-height:1.25"><tspan id="tspan8052-8-7" x="60.332" y="223.285" fill="#fff" stroke-width=".265" font-size="2.822">12°</tspan></text><path id="path3847-4-9" fill="#fff" stroke="#fff" stroke-linecap="butt" stroke-linejoin="miter" stroke-opacity="1" stroke-width=".342" marker-end="url(#Arrow1Mend-7-2)" marker-start="url(#Arrow1Mstart-9-4)" d="m 66.404605,221.40954 1.364167,9.83019"/><text id="text8054-74-2-8" x="67.514" y="227.585" fill="#fff" fill-opacity="1" stroke="none" stroke-width=".265" font-family="sans-serif" font-size="2.822" font-style="normal" font-weight="normal" letter-spacing="0" word-spacing="0" xml:space="preserve" style="line-height:1.25"><tspan id="tspan8052-8-7-5" x="67.514" y="227.585" fill="#fff" stroke-width=".265" font-size="2.822">15°</tspan></text><text id="text8054-74-2-6" x="76.255" y="227.963" fill="#fff" fill-opacity="1" stroke="none" stroke-width=".265" font-family="sans-serif" font-size="2.822" font-style="normal" font-weight="normal" letter-spacing="0" word-spacing="0" xml:space="preserve" style="line-height:1.25"><tspan id="tspan8052-8-7-0" x="76.255" y="227.963" fill="#fff" stroke-width=".265" font-size="2.822">18°</tspan></text><text id="text3889-7-4" x="-47.545" y="243.069" fill="#000" fill-opacity="1" stroke="none" stroke-width=".265" font-family="sans-serif" font-size="10.583" font-style="normal" font-weight="normal" letter-spacing="0" transform="rotate(-14.969793)" word-spacing="0" xml:space="preserve" style="line-height:1.25"><tspan id="tspan3887-8-5" x="-47.545" y="243.069" stroke-width=".265" font-size="3.528">amateur dusk</tspan></text><text id="text3889-7-4-7" x="-27.009" y="235.447" fill="#000" fill-opacity="1" stroke="none" stroke-width=".265" font-family="sans-serif" font-size="10.583" font-style="normal" font-weight="normal" letter-spacing="0" transform="rotate(-7.724198)" word-spacing="0" xml:space="preserve" style="line-height:1.25"><tspan id="tspan3887-8-5-2" x="-27.009" y="235.447" stroke-width=".265" font-size="3.528">blue hour dusk end</tspan></text><text id="text3889-7-4-7-4" x="-5.515" y="227.966" fill="#000" fill-opacity="1" stroke="none" stroke-width=".265" font-family="sans-serif" font-size="10.583" font-style="normal" font-weight="normal" letter-spacing="0" transform="rotate(-4.2445265)" word-spacing="0" xml:space="preserve" style="line-height:1.25"><tspan id="tspan3887-8-5-2-9" x="-5.515" y="227.966" stroke-width=".265" font-size="3.528">blue hour dusk</tspan></text><text id="text3889-9" x="182.871" y="221.729" fill="#000" fill-opacity="1" stroke="none" stroke-width=".265" font-family="sans-serif" font-size="10.583" font-style="normal" font-weight="normal" letter-spacing="0" word-spacing="0" xml:space="preserve" style="line-height:1.25"><tspan id="tspan3887-1" x="182.871" y="221.729" stroke-width=".265" font-size="3.528">sunrise</tspan></text><text id="text3889-3-7" x="206.536" y="207.225" fill="#000" fill-opacity="1" stroke="none" stroke-width=".265" font-family="sans-serif" font-size="10.583" font-style="normal" font-weight="normal" letter-spacing="0" transform="rotate(6.4282294)" word-spacing="0" xml:space="preserve" style="line-height:1.25"><tspan id="tspan3887-7-7" x="206.536" y="207.225" stroke-width=".265" font-size="3.528">civil dawn</tspan></text><text id="text3889-7-6" x="225.302" y="194.834" fill="#000" fill-opacity="1" stroke="none" stroke-width=".265" font-family="sans-serif" font-size="10.583" font-style="normal" font-weight="normal" letter-spacing="0" transform="rotate(11.768743)" word-spacing="0" xml:space="preserve" style="line-height:1.25"><tspan id="tspan3887-8-6" x="225.302" y="194.834" stroke-width=".265" font-size="3.528">nautical dawn</tspan></text><text id="text3889-7-2-9" x="245.529" y="176.827" fill="#000" fill-opacity="1" stroke="none" stroke-width=".265" font-family="sans-serif" font-size="10.583" font-style="normal" font-weight="normal" letter-spacing="0" transform="rotate(18.013292)" word-spacing="0" xml:space="preserve" style="line-height:1.25"><tspan id="tspan3887-8-8-7" x="245.529" y="176.827" stroke-width=".265" font-size="3.528">astronomical dawn</tspan></text><text id="text3889-7-4-6" x="235.813" y="186.053" fill="#000" fill-opacity="1" stroke="none" stroke-width=".265" font-family="sans-serif" font-size="10.583" font-style="normal" font-weight="normal" letter-spacing="0" transform="rotate(14.936029)" word-spacing="0" xml:space="preserve" style="line-height:1.25"><tspan id="tspan3887-8-5-9" x="235.813" y="186.053" stroke-width=".265" font-size="3.528">amateur dawn</tspan></text><text id="text3889-7-4-7-6" x="213.291" y="203.625" fill="#000" fill-opacity="1" stroke="none" stroke-width=".265" font-family="sans-serif" font-size="10.583" font-style="normal" font-weight="normal" letter-spacing="0" transform="rotate(8.2586315)" word-spacing="0" xml:space="preserve" style="line-height:1.25"><tspan id="tspan3887-8-5-2-0" x="213.291" y="203.625" stroke-width=".265" font-size="3.528">blue hour dawn end</tspan></text><text id="text3889-7-4-7-4-9" x="196.947" y="213.483" fill="#000" fill-opacity="1" stroke="none" stroke-width=".265" font-family="sans-serif" font-size="10.583" font-style="normal" font-weight="normal" letter-spacing="0" transform="rotate(3.7882696)" word-spacing="0" xml:space="preserve" style="line-height:1.25"><tspan id="tspan3887-8-5-2-9-0" x="196.947" y="213.483" stroke-width=".265" font-size="3.528">blue hour dawn</tspan></text><path id="path3847-44" fill="#fff" stroke="#fff" stroke-linecap="butt" stroke-linejoin="miter" stroke-opacity="1" stroke-width=".248" marker-end="url(#Arrow1Mend-9)" marker-start="url(#Arrow1Mstart-8)" d="m 171.29032,221.21331 0.40187,5.38901"/><path id="path3847-4-0" fill="#fff" stroke="#fff" stroke-linecap="butt" stroke-linejoin="miter" stroke-opacity="1" stroke-width=".334" marker-end="url(#Arrow1Mend-7-8)" marker-start="url(#Arrow1Mstart-9-9)" d="m 158.86225,221.41928 1.07899,9.24792"/><path id="path3847-4-8-9" fill="#fff" stroke="#fff" stroke-linecap="butt" stroke-linejoin="miter" stroke-opacity="1" stroke-width=".417" marker-end="url(#Arrow1Mend-7-9-9)" marker-start="url(#Arrow1Mstart-9-5-6)" d="m 144.2345,221.3371 1.76646,10.24483"/><text id="text8054-1" x="167.315" y="223.935" fill="#fff" fill-opacity="1" stroke="none" stroke-width=".265" font-family="sans-serif" font-size="2.822" font-style="normal" font-weight="normal" letter-spacing="0" word-spacing="0" xml:space="preserve" style="line-height:1.25"><tspan id="tspan8052-9" x="167.315" y="223.935" fill="#fff" stroke-width=".265" font-size="2.822">6°</tspan></text><path id="path3847-4-2-3" fill="#fff" stroke="#fff" stroke-linecap="butt" stroke-linejoin="miter" stroke-opacity="1" stroke-width=".247" marker-end="url(#Arrow1Mend-7-0-8)" marker-start="url(#Arrow1Mstart-9-2-3)" d="m 177.61026,221.10003 0.50547,3.95929"/><path id="path3847-4-83-5" fill="#fff" stroke="#fff" stroke-linecap="butt" stroke-linejoin="miter" stroke-opacity="1" stroke-width=".301" marker-end="url(#Arrow1Mend-7-5-5)" marker-start="url(#Arrow1Mstart-9-6-7)" d="m 165.43556,221.22527 0.49483,6.73262"/><text id="text8054-7-8" x="173.996" y="224.062" fill="#fff" fill-opacity="1" stroke="none" stroke-width=".265" font-family="sans-serif" font-size="2.822" font-style="normal" font-weight="normal" letter-spacing="0" word-spacing="0" xml:space="preserve" style="line-height:1.25"><tspan id="tspan8052-5-4" x="173.996" y="224.062" fill="#fff" stroke-width=".265" font-size="2.822">4°</tspan></text><text id="text8054-74-5" x="161.432" y="223.433" fill="#fff" fill-opacity="1" stroke="none" stroke-width=".265" font-family="sans-serif" font-size="2.822" font-style="normal" font-weight="normal" letter-spacing="0" word-spacing="0" xml:space="preserve" style="line-height:1.25"><tspan id="tspan8052-8-6" x="161.432" y="223.433" fill="#fff" stroke-width=".265" font-size="2.822">8°</tspan></text><text id="text8054-74-2-5" x="153.745" y="228.117" fill="#fff" fill-opacity="1" stroke="none" stroke-width=".265" font-family="sans-serif" font-size="2.822" font-style="normal" font-weight="normal" letter-spacing="0" word-spacing="0" xml:space="preserve" style="line-height:1.25"><tspan id="tspan8052-8-7-08" x="153.745" y="228.117" fill="#fff" stroke-width=".265" font-size="2.822">12°</tspan></text><path id="path3847-4-9-7" fill="#fff" stroke="#fff" stroke-linecap="butt" stroke-linejoin="miter" stroke-opacity="1" stroke-width=".342" marker-end="url(#Arrow1Mend-7-2-5)" marker-start="url(#Arrow1Mstart-9-4-8)" d="m 150.42928,221.36354 1.36416,9.83019"/><text id="text8054-74-2-8-3" x="145.859" y="227.94" fill="#fff" fill-opacity="1" stroke="none" stroke-width=".265" font-family="sans-serif" font-size="2.822" font-style="normal" font-weight="normal" letter-spacing="0" word-spacing="0" xml:space="preserve" style="line-height:1.25"><tspan id="tspan8052-8-7-5-8" x="145.859" y="227.94" fill="#fff" stroke-width=".265" font-size="2.822">15°</tspan></text><text id="text8054-74-2-6-3" x="139.299" y="227.917" fill="#fff" fill-opacity="1" stroke="none" stroke-width=".265" font-family="sans-serif" font-size="2.822" font-style="normal" font-weight="normal" letter-spacing="0" word-spacing="0" xml:space="preserve" style="line-height:1.25"><tspan id="tspan8052-8-7-0-8" x="139.299" y="227.917" fill="#fff" stroke-width=".265" font-size="2.822">18°</tspan></text><circle id="path4795" cx="-41.933" cy="242.808" r=".532" fill="#ff0" stroke="#fff" stroke-dasharray="none" stroke-miterlimit="4" stroke-width=".037" transform="scale(-1,1)"/><circle id="path4795-1" cx="-40.052" cy="235.634" r=".532" fill="#ff0" stroke="#fff" stroke-dasharray="none" stroke-miterlimit="4" stroke-width=".037" transform="scale(-1,1)"/><circle id="path4795-8" cx="-38.789" cy="228.173" r=".532" fill="#ff0" stroke="#fff" stroke-dasharray="none" stroke-miterlimit="4" stroke-width=".037" transform="scale(-1,1)"/><circle id="path4795-81" cx="-38.392" cy="220.737" r=".532" fill="#ff0" stroke="#fff" stroke-dasharray="none" stroke-miterlimit="4" stroke-width=".037" transform="scale(-1,1)"/><circle id="path4795-4" cx="-182.099" cy="220.69" r=".532" fill="#ff0" stroke="#fff" stroke-dasharray="none" stroke-miterlimit="4" stroke-width=".037" transform="scale(-1,1)"/><circle id="path4795-5" cx="-181.678" cy="228.103" r=".532" fill="#ff0" stroke="#fff" stroke-dasharray="none" stroke-miterlimit="4" stroke-width=".037" transform="scale(-1,1)"/><circle id="path4795-51" cx="-180.486" cy="235.587" r=".532" fill="#ff0" stroke="#fff" stroke-dasharray="none" stroke-miterlimit="4" stroke-width=".037" transform="scale(-1,1)"/><circle id="path4795-9" cx="-178.568" cy="242.836" r=".532" fill="#ff0" stroke="#fff" stroke-dasharray="none" stroke-miterlimit="4" stroke-width=".037" transform="scale(-1,1)"/><circle id="path4795-7" cx="-38.649" cy="225.671" r=".532" fill="olive" stroke="#fff" stroke-dasharray="none" stroke-miterlimit="4" stroke-width=".037" transform="scale(-1,1)"/><circle id="path4795-7-8" cx="-39.163" cy="230.699" r=".532" fill="olive" stroke="#fff" stroke-dasharray="none" stroke-miterlimit="4" stroke-width=".037" transform="scale(-1,1)"/><circle id="path4795-7-7" cx="-40.894" cy="239.305" r=".532" fill="olive" stroke="#fff" stroke-dasharray="none" stroke-miterlimit="4" stroke-width=".037" transform="scale(-1,1)"/><circle id="path4795-7-2" cx="-179.62" cy="239.329" r=".532" fill="olive" stroke="#fff" stroke-dasharray="none" stroke-miterlimit="4" stroke-width=".037" transform="scale(-1,1)"/><circle id="path4795-7-9" cx="-181.421" cy="230.769" r=".532" fill="olive" stroke="#fff" stroke-dasharray="none" stroke-miterlimit="4" stroke-width=".037" transform="scale(-1,1)"/><circle id="path4795-7-0" cx="-181.912" cy="225.718" r=".532" fill="olive" stroke="#fff" stroke-dasharray="none" stroke-miterlimit="4" stroke-width=".037" transform="scale(-1,1)"/></g></svg>